<svg width="304" height="107" viewBox="0 0 304 107" fill="none" xmlns="http://www.w3.org/2000/svg">
<text fill="white" xml:space="preserve" style="white-space: pre" font-family="Roboto" font-size="91" font-weight="bold" letter-spacing="0em"><tspan x="71" y="84.6035">WeFit</tspan></text>
<path d="M57.4024 74.4855C56.7957 69.9716 53.2525 68.2315 53.1033 68.1618C52.7175 67.9722 52.2717 67.9625 51.8783 68.1231C51.4848 68.278 51.1766 68.6012 51.0254 68.998C50.6571 69.991 49.4108 72.8615 48.0947 74.1778C47.1275 75.1417 45.2726 76.4908 43.782 77.5728C42.4892 78.5155 41.4677 79.2568 40.9424 79.7775C39.2154 81.5041 37.8819 82.0867 36.6375 81.6647C35.1082 81.1537 27.3066 75.3353 22.2574 71.3692C21.6022 70.8524 20.6466 70.9666 20.1311 71.6169C19.6116 72.275 19.726 73.2254 20.3811 73.7461C22.4841 75.3972 33.0866 83.67 35.6703 84.5353C39.2639 85.7315 42.1442 82.8609 43.0881 81.9202C43.4428 81.566 44.5205 80.7802 45.5653 80.0233C47.2225 78.8174 49.1046 77.4509 50.2404 76.3147C51.4266 75.132 52.419 73.3125 53.0684 71.9363C53.6363 72.5731 54.2139 73.5351 54.3941 74.8862C54.9097 78.7226 56.4875 83.8017 56.5534 84.0146C56.8073 84.8237 57.6718 85.2553 58.4529 85.0095C59.2515 84.7617 59.6973 83.9101 59.4473 83.1164C59.4337 83.0642 57.8811 78.0703 57.4024 74.4855Z" fill="#FFC400"/>
<path d="M24.5368 67.556C26.5293 68.067 32.2221 69.902 34.581 72.2576C34.8736 72.546 35.2594 72.7028 35.6528 72.7028C35.8893 72.7028 36.1258 72.6447 36.3487 72.5305C36.934 72.2286 37.2577 71.584 37.1492 70.9375C36.8177 68.9748 36.3293 63.346 37.9962 60.8723C40.2737 57.4946 43.3478 58.0347 43.4661 58.0676C43.9778 58.1663 44.5127 58.0095 44.8791 57.6321C45.2415 57.2546 45.3811 56.7146 45.2493 56.2074C45.2338 56.1378 43.5707 49.2605 47.1004 46.9707C48.8099 45.8654 50.3722 45.4241 51.7503 45.0331C53.7739 44.4602 56.0669 43.8156 56.0669 40.8038C56.0669 37.6003 52.8125 37.1048 50.8994 37.0293C49.2577 34.0059 46.3657 27.3183 47.6741 23.0658C47.8582 22.4619 47.645 21.8037 47.143 21.4205C47.0093 21.316 44.3887 19.2487 44.5496 16.2892C45.9665 16.926 48.0385 17.3905 50.4633 16.4827L51.1843 16.1982C53.4657 15.2768 56.5921 14.0168 61.6142 16.3976C62.374 16.7576 63.2754 16.4343 63.6339 15.6775C63.9925 14.9265 63.6708 14.0226 62.9148 13.6645C56.6871 10.7107 52.5314 12.387 50.0504 13.3896L49.3895 13.649C46.7166 14.6613 44.7027 12.8728 44.6271 12.8031C44.2685 12.4663 43.7704 12.325 43.2819 12.4237C42.7974 12.5244 42.3923 12.8534 42.1984 13.3044C40.3512 17.5705 42.5997 21.2869 44.5282 23.1567C43.1928 29.9353 48.4688 38.903 48.7053 39.2998C48.9805 39.7586 49.4748 40.0412 50.0078 40.0412C50.7191 40.0412 53.0334 40.0934 53.0334 40.8038C53.0334 41.4135 53.0334 41.5219 50.9265 42.1181C49.498 42.5246 47.5442 43.0743 45.4509 44.4311C41.5452 46.9668 41.6014 52.2104 41.9658 55.05C40.1632 55.2435 37.5562 56.1145 35.4861 59.1786C33.8812 61.5536 33.6816 65.2526 33.8076 67.976C30.1365 65.8759 25.535 64.6893 25.2849 64.6216C24.4747 64.4106 23.6451 64.9023 23.4416 65.7152C23.2323 66.5243 23.7266 67.3528 24.5368 67.556Z" fill="#FFC400"/>
<path d="M125.456 65.7404C124.791 65.2236 123.839 65.3417 123.323 65.994C118.015 72.7686 111.374 80.3872 109.474 81.4324C107.292 80.273 100.471 70.4885 99.7888 68.9613C99.3159 67.7825 98.3913 67.0024 97.3117 66.865C96.6255 66.7798 95.2939 66.8979 94.0186 68.6303C93.1328 69.8342 92.0357 73.0028 90.4618 77.7006C89.7097 79.9381 89.0042 82.048 88.5972 82.9267C88.2405 83.6836 88.5681 84.5836 89.3318 84.9378C90.0703 85.2824 90.9832 84.9766 91.3437 84.2042C91.8225 83.1745 92.5222 81.084 93.3382 78.6606C94.3132 75.7437 95.7921 71.3343 96.4627 70.4207C96.6856 70.1188 96.8601 69.9678 96.8717 69.8865C96.8988 69.931 96.9415 69.9968 96.9764 70.0897C97.2206 70.6994 105.737 84.5159 109.494 84.5159C111.587 84.5159 117.043 78.9161 125.71 67.8618C126.227 67.2056 126.113 66.2553 125.456 65.7404Z" fill="#FFC400"/>
<path d="M100.599 54.7519C102.109 56.521 101.938 60.9478 101.76 62.3627C101.675 63.0344 102.062 63.6906 102.687 63.9519C102.877 64.0312 107.325 65.9804 108.556 73.3454C108.645 73.8893 109.025 74.3384 109.54 74.5223C110.062 74.7081 110.639 74.5939 111.052 74.23L122.046 64.5364C122.674 63.9848 122.732 63.0247 122.178 62.3995C121.624 61.7704 120.666 61.7143 120.036 62.2679L110.957 70.2755C109.438 65.1345 106.447 62.6782 104.861 61.6949C105.003 59.647 105.013 55.2532 102.9 52.7833C100.271 49.7193 97.837 48.585 92.0396 47.7333C88.256 47.1797 88.3491 45.188 88.4344 43.2582C88.4344 43.2291 88.4402 43.202 88.4402 43.173C88.6728 43.1536 88.9616 43.1401 89.1651 43.1343C90.2118 43.0975 91.6461 43.0414 92.2722 41.82C94.4838 37.5074 94.9567 27.5177 95.0381 25.1659C96.0421 23.7142 97.0365 21.1689 95.5634 19.0687C93.8015 16.5621 87.7056 13.2367 81.3499 13.738C76.8415 14.1077 73.9185 16.8699 72.4435 18.7203C71.3464 17.8299 69.6117 16.8989 67.1733 16.8989C64.8803 16.8989 62.5544 18.1899 60.9553 20.3559C58.9743 23.0329 58.4588 26.5809 59.5384 30.0805C62.1241 38.481 67.495 39.9366 67.7218 39.9947C68.2471 40.1321 68.7976 39.9695 69.1755 39.5882C69.5554 39.205 69.7028 38.6475 69.5593 38.1268C68.3285 33.6323 67.2721 28.0848 67.6656 26.9931C67.8633 26.4628 68.1347 26.3157 68.3246 26.2499C68.7065 26.1221 69.2608 26.1841 69.8481 26.4105C69.8869 29.2578 70.6157 37.2326 77.2853 40.5522C77.0547 43.2949 76.291 46.9049 75.0311 47.9598L74.69 48.2424C69.319 52.7369 67.2159 55.2764 69.1581 73.2603C69.5167 76.5702 70.2707 82.4022 70.3695 83.1493C70.4354 83.9255 71.0848 84.5352 71.8814 84.5352C72.8001 84.5352 73.5348 83.7126 73.3758 82.7719C73.2828 82.0615 72.5288 76.2353 72.1741 72.9331C70.3249 55.8397 72.302 54.1886 76.6379 50.5612L76.9771 50.2767C79.9854 47.7604 80.3459 40.4767 80.3788 39.654C80.4021 39.0114 80.0203 38.4249 79.4174 38.1868C72.3989 35.4441 72.8854 25.673 72.8893 25.5743C72.9223 25.0149 72.6431 24.4846 72.1644 24.1923C70.5246 23.1935 68.7646 22.9012 67.3342 23.3871C66.1673 23.7897 65.3009 24.6646 64.828 25.9227C64.1941 27.6029 64.9268 31.8032 65.6808 35.1131C64.5585 33.9304 63.3219 32.0722 62.4322 29.192C61.3468 25.6672 62.5699 23.2709 63.3936 22.1522C64.4112 20.7817 65.8553 19.9262 67.1733 19.9262C70.0187 19.9262 71.3077 21.8463 71.3522 21.9121C71.6391 22.3709 72.1276 22.6322 72.6916 22.6264C73.2324 22.607 73.7247 22.3012 73.9806 21.8212C74.0038 21.7805 76.5081 17.1737 81.5961 16.7576C86.9903 16.3221 91.9272 19.1597 93.0824 20.805C93.7918 21.8212 92.3768 23.6716 92.3633 23.6871C92.1481 23.9465 92.0299 24.2736 92.0202 24.6085C91.9504 27.7209 91.3961 36.348 89.7524 40.0702C89.5431 40.0895 89.2601 40.1031 89.0527 40.107C88.0564 40.1457 85.4223 40.2444 85.4223 42.6252L85.4087 43.1207C85.3234 44.9421 85.1063 49.7754 91.5996 50.7277C96.99 51.5213 98.6433 52.4717 100.599 54.7519Z" fill="#FFC400"/>
<path fill-rule="evenodd" clip-rule="evenodd" d="M11.0405 67.4611C8.33077 67.4611 6.125 65.2623 6.125 62.5505C6.125 59.8445 8.33077 57.6456 11.0405 57.6456C13.7502 57.6456 15.956 59.8445 15.956 62.5505C15.956 65.2623 13.7502 67.4611 11.0405 67.4611ZM11.0405 60.6729C10.0016 60.6729 9.15648 61.5149 9.15648 62.5505C9.15648 63.5918 10.0016 64.4338 11.0405 64.4338C12.0794 64.4338 12.9245 63.5918 12.9245 62.5505C12.9245 61.5149 12.0794 60.6729 11.0405 60.6729ZM131.185 59.4438C128.609 59.4438 126.512 57.3475 126.512 54.7751C126.512 52.2026 128.609 50.1122 131.185 50.1122C133.763 50.1122 135.856 52.2026 135.856 54.7751C135.856 57.3475 133.763 59.4438 131.185 59.4438ZM131.185 53.1395C130.282 53.1395 129.542 53.8712 129.542 54.7751C129.542 55.679 130.282 56.4165 131.185 56.4165C132.09 56.4165 132.825 55.679 132.825 54.7751C132.825 53.8712 132.09 53.1395 131.185 53.1395Z" fill="#BBBDBF"/>
<path fill-rule="evenodd" clip-rule="evenodd" d="M11.0405 73.5758C4.95232 73.5758 0 68.6341 0 62.5505C0 56.4726 4.95232 51.531 11.0405 51.531C17.1286 51.531 22.079 56.4726 22.079 62.5505C22.079 68.6341 17.1286 73.5758 11.0405 73.5758ZM11.0405 54.5583C6.62506 54.5583 3.03342 58.1431 3.03342 62.5505C3.03342 66.9637 6.62506 70.5504 11.0405 70.5504C15.4559 70.5504 19.0495 66.9637 19.0495 62.5505C19.0495 58.1431 15.4559 54.5583 11.0405 54.5583ZM131.185 65.119C125.475 65.119 120.827 60.4794 120.827 54.7751C120.827 49.0708 125.475 44.4311 131.185 44.4311C136.899 44.4311 141.545 49.0708 141.545 54.7751C141.545 60.4794 136.899 65.119 131.185 65.119ZM131.185 47.4585C127.146 47.4585 123.858 50.7413 123.858 54.7751C123.858 58.8089 127.146 62.0917 131.185 62.0917C135.226 62.0917 138.514 58.8089 138.514 54.7751C138.514 50.7413 135.226 47.4585 131.185 47.4585Z" fill="#8957FF"/>
<path fill-rule="evenodd" clip-rule="evenodd" d="M11.0405 72.9699C5.28765 72.9699 0.606689 68.2973 0.606689 62.5505C0.606689 56.8094 5.28765 52.1368 11.0405 52.1368C16.7933 52.1368 21.4743 56.8094 21.4743 62.5505C21.4743 68.2973 16.7933 72.9699 11.0405 72.9699ZM11.0405 53.9525C6.29168 53.9525 2.42674 57.8121 2.42674 62.5505C2.42674 67.2947 6.29168 71.1543 11.0405 71.1543C15.7893 71.1543 19.6542 67.2947 19.6542 62.5505C19.6542 57.8121 15.7893 53.9525 11.0405 53.9525Z" fill="#B57DFF"/>
<path fill-rule="evenodd" clip-rule="evenodd" d="M131.185 64.5151C125.806 64.5151 121.434 60.1484 121.434 54.7751C121.434 49.4057 125.806 45.037 131.185 45.037C136.562 45.037 140.939 49.4057 140.939 54.7751C140.939 60.1484 136.562 64.5151 131.185 64.5151ZM131.185 46.8526C126.81 46.8526 123.252 50.4083 123.252 54.7751C123.252 59.1457 126.81 62.6976 131.185 62.6976C135.558 62.6976 139.121 59.1457 139.121 54.7751C139.121 50.4083 135.558 46.8526 131.185 46.8526Z" fill="#B57DFF"/>
<path fill-rule="evenodd" clip-rule="evenodd" d="M11.0405 72.366C5.62298 72.366 1.21338 67.9625 1.21338 62.5505C1.21338 57.1404 5.62298 52.7408 11.0405 52.7408C16.4599 52.7408 20.8676 57.1404 20.8676 62.5505C20.8676 67.9625 16.4599 72.366 11.0405 72.366ZM11.0405 53.3466C5.95637 53.3466 1.82006 57.4753 1.82006 62.5505C1.82006 67.6315 5.95637 71.7602 11.0405 71.7602C16.1246 71.7602 20.2609 67.6315 20.2609 62.5505C20.2609 57.4753 16.1246 53.3466 11.0405 53.3466Z" fill="#E8BAFF"/>
<path fill-rule="evenodd" clip-rule="evenodd" d="M131.185 63.9093C126.142 63.9093 122.04 59.8116 122.04 54.7751C122.04 49.7386 126.142 45.6428 131.185 45.6428C136.231 45.6428 140.332 49.7386 140.332 54.7751C140.332 59.8116 136.231 63.9093 131.185 63.9093ZM131.185 46.2468C126.479 46.2468 122.647 50.0735 122.647 54.7751C122.647 59.4767 126.479 63.3034 131.185 63.3034C135.895 63.3034 139.725 59.4767 139.725 54.7751C139.725 50.0735 135.895 46.2468 131.185 46.2468Z" fill="#E8BAFF"/>
<path d="M70.9801 83.1494C70.4238 78.8716 70.0167 75.552 69.7609 73.1925C67.8497 55.5184 69.883 53.0543 75.0834 48.7069L75.4207 48.4224C77.1109 47.0094 77.7602 42.4626 77.9211 40.1844C70.858 36.9635 70.4315 28.3597 70.4529 26.0137C69.5923 25.5918 68.7472 25.464 68.125 25.6769C67.6501 25.8415 67.3148 26.2015 67.0977 26.7744C66.5879 28.1274 67.8885 34.3195 68.972 38.2875C69.0573 38.5991 68.972 38.9359 68.7452 39.1624C68.5184 39.3947 68.1812 39.4876 67.873 39.4082C67.6578 39.3521 62.6047 37.9836 60.116 29.9063C59.0926 26.5847 59.5771 23.2361 61.4437 20.7159C62.9284 18.7048 65.0702 17.5047 67.1733 17.5047C69.8345 17.5047 71.5829 18.6874 72.5346 19.5991C73.7712 17.888 76.6651 14.7329 81.3964 14.3439C87.5602 13.8425 93.3905 17.0266 95.0672 19.4191C96.5771 21.5715 95.0187 24.1362 94.4353 24.953C94.3791 26.8693 93.9488 37.2132 91.7314 41.5451C91.272 42.4491 90.14 42.4917 89.1418 42.5284C88.7328 42.5439 87.9711 42.5729 87.7908 42.7046C87.847 42.7994 87.8393 43.0085 87.8296 43.2349C87.7443 45.1164 87.6261 47.7004 91.9543 48.3334C97.5772 49.156 99.9264 50.2438 102.44 53.1763C104.524 55.6171 104.369 60.2994 104.226 62.0221C105.666 62.8311 109.157 65.3513 110.626 71.3769L120.439 62.7208C120.817 62.3956 121.395 62.4227 121.722 62.8021C122.054 63.1757 122.021 63.7486 121.643 64.0835L110.649 73.7751C110.403 73.9977 110.052 74.0636 109.744 73.9493C109.432 73.841 109.205 73.5719 109.153 73.2448C107.86 65.5062 103.123 63.4776 102.919 63.3925C102.541 63.2376 102.309 62.8447 102.361 62.4382C102.564 60.8471 102.725 56.3081 101.056 54.3589C99.0872 52.0556 97.3485 50.9581 91.6887 50.1296C85.7362 49.2566 85.9301 44.9809 86.0154 43.1498C86.0192 42.9562 86.0289 42.7743 86.0289 42.6252C86.0289 40.827 88.0099 40.7573 89.074 40.7128C89.4442 40.6993 90.0644 40.676 90.2253 40.5909C92.3245 36.4003 92.6269 24.7362 92.6269 24.622C92.6307 24.4188 92.7083 24.2252 92.8304 24.0684C92.8498 24.051 94.5729 21.885 93.5786 20.4604C92.3516 18.7145 87.1376 15.6775 81.5437 16.1556C76.1301 16.595 73.4688 21.4921 73.4456 21.5386C73.2886 21.827 72.9959 22.0109 72.6722 22.0205C72.3311 22.007 72.0364 21.8696 71.8659 21.5947C71.8097 21.5057 70.3734 19.3204 67.1733 19.3204C65.6692 19.3204 64.0352 20.2649 62.9052 21.7941C61.3875 23.8458 61.0037 26.6099 61.8546 29.3701C63.1843 33.6943 65.2679 35.8138 66.712 36.8164C65.9192 33.6381 64.6903 28.0035 65.3939 26.1357C65.8029 25.0537 66.5433 24.3007 67.5338 23.96C68.7879 23.5245 70.3656 23.8052 71.8523 24.7072C72.1372 24.8833 72.3039 25.2046 72.2845 25.5395C72.2787 25.644 71.7593 35.8428 79.1945 38.7501C79.555 38.8933 79.7857 39.2476 79.7721 39.6347C79.745 40.4302 79.3942 47.4623 76.5895 49.8141L76.2483 50.0967C71.7438 53.8673 69.6872 55.5842 71.5693 72.999C71.9512 76.5237 72.7827 82.919 72.7846 82.919C72.8602 83.461 72.5869 83.7649 71.9667 83.8307C71.3697 83.8946 71.0402 83.6662 70.9801 83.1494Z" fill="#FFEC4A"/>
<path d="M89.5876 84.3901C89.1321 84.1772 88.9325 83.6371 89.1457 83.1823C89.5682 82.2744 90.2835 80.1472 91.0355 77.8903C92.5454 73.3919 93.6793 70.1188 94.5128 68.9884C95.5401 67.5792 96.5403 67.3895 97.2361 67.465C98.0928 67.5753 98.8371 68.218 99.2248 69.1877C99.8838 70.8098 107.641 81.8544 109.507 82.0944C110.951 81.7925 117.929 73.8603 123.802 66.3675C124.11 65.9746 124.682 65.9049 125.082 66.2165C125.475 66.5243 125.545 67.0973 125.233 67.4902C121.362 72.428 112.076 83.9101 109.494 83.9101C106.174 83.9101 97.7904 70.4846 97.5385 69.8632C97.4067 69.5323 97.1934 69.2922 97.0093 69.2671C96.7864 69.2632 96.4356 69.4374 95.9762 70.0626C95.2455 71.0517 93.8111 75.3353 92.7606 78.4671C91.9543 80.8711 91.2584 82.9461 90.7932 83.9488C90.5761 84.4114 90.0218 84.5972 89.5876 84.3901Z" fill="#FFEC4A"/>
<path d="M57.131 83.8365C57.0651 83.6236 55.5067 78.5948 54.995 74.8068C54.7236 72.7725 53.6421 71.5376 52.8687 70.8949C52.2872 72.2383 51.163 74.5378 49.8081 75.8888C48.7072 76.9921 46.8484 78.3393 45.2067 79.5317C44.096 80.3408 43.0474 81.1015 42.6597 81.4886C41.7817 82.3693 39.1049 85.0463 35.8661 83.9623C33.3211 83.1126 22.0364 74.2765 20.759 73.2699C20.3636 72.9622 20.2958 72.3892 20.604 71.9963C20.916 71.5995 21.4878 71.5337 21.8833 71.8395C26.8046 75.7108 34.7418 81.6705 36.4437 82.2415C38.3819 82.89 40.1884 81.3899 41.3727 80.2072C41.8612 79.7156 42.8652 78.9878 44.1387 78.0664C45.6466 76.967 47.521 75.6062 48.525 74.6075C50.2016 72.9293 51.5797 69.2439 51.5952 69.2071C51.6844 68.969 51.8705 68.7754 52.107 68.6806C52.3473 68.5858 52.6109 68.5974 52.8396 68.7058C52.9811 68.7716 56.2355 70.3743 56.7995 74.5649C57.288 78.2019 58.8522 83.2442 58.8696 83.2965C59.0169 83.7746 58.7514 84.2856 58.2707 84.4307C57.7551 84.5836 57.2725 84.2894 57.131 83.8365Z" fill="#FFEC4A"/>
<path d="M35.6528 72.097C35.4183 72.097 35.1838 72.0021 35.0093 71.826C32.0534 68.8703 24.7577 66.9889 24.686 66.9695C24.1995 66.8456 23.9068 66.354 24.0289 65.8662C24.151 65.3804 24.6492 65.09 25.1357 65.21C25.4051 65.2797 30.8246 66.6811 34.4937 69.1064C34.2805 66.4585 34.2553 62.0821 35.9882 59.5193C38.1939 56.252 41.0258 55.6461 42.6578 55.6035C42.2488 53.1201 41.8379 47.4952 45.7804 44.9421C47.7962 43.6317 49.624 43.1169 51.0932 42.7046C53.2234 42.0987 53.6401 41.8858 53.6401 40.8038C53.6401 40.3973 53.6401 39.4353 50.0078 39.4353C49.688 39.4353 49.3914 39.2669 49.2267 38.9921C48.9921 38.5952 43.6521 29.5172 45.1931 22.9477C43.3478 21.2927 40.9618 17.6925 42.7528 13.5445C42.871 13.2754 43.1114 13.0818 43.4002 13.0199C43.689 12.9502 43.9933 13.0431 44.2084 13.2425C44.3053 13.3277 46.5479 15.3562 49.6046 14.2161L50.2772 13.9509C52.671 12.987 56.6774 11.3785 62.6551 14.2122C63.1087 14.4252 63.3025 14.9691 63.0854 15.422C62.8722 15.8711 62.3295 16.0704 61.8759 15.8537C56.6135 13.3567 53.2098 14.7271 50.9595 15.6369L50.2481 15.9156C47.5442 16.9318 45.3191 16.0898 44.0631 15.362C43.2199 19.121 46.6177 21.7747 46.7728 21.8986C47.0771 22.1309 47.205 22.5219 47.0907 22.8858C45.5226 27.9997 49.4864 35.7092 50.5427 37.6197C52.2736 37.6526 55.4602 37.9468 55.4602 40.8038C55.4602 43.3569 53.58 43.8872 51.5855 44.4505C50.2346 44.8338 48.556 45.306 46.7708 46.4655C42.8226 49.0224 44.6465 56.2849 44.6659 56.3604C44.7415 56.6623 44.6562 56.9875 44.4371 57.2159C44.2201 57.4424 43.8983 57.5372 43.5921 57.4714C43.4525 57.4424 40.012 56.8056 37.4942 60.5355C35.3485 63.7157 36.5367 70.9607 36.5503 71.0362C36.6162 71.4253 36.4223 71.8124 36.0696 71.9924C35.9358 72.0621 35.7943 72.097 35.6528 72.097Z" fill="#FFEC4A"/>
<path d="M71.8814 83.339C71.7321 83.339 71.6003 83.2268 71.5829 83.0739C71.5732 83.0081 70.7436 76.6224 70.3656 73.1267C68.4138 55.0732 70.7727 53.1008 75.4711 49.1715L75.8084 48.8869C78.0199 47.0365 78.4793 41.007 78.551 39.8011C71.0789 36.7022 71.0305 27.119 71.0692 25.6537C69.947 25.0149 68.784 24.8156 67.9253 25.1059C67.2818 25.3266 66.8069 25.8182 66.5278 26.5615C65.8649 28.321 67.6462 35.7383 68.3905 38.4481C68.4177 38.5507 68.3867 38.6611 68.3149 38.7404C68.2355 38.8178 68.1289 38.8508 68.0203 38.8217C67.8207 38.7695 63.0854 37.4842 60.6936 29.7262C59.7322 26.5944 60.1819 23.4394 61.9322 21.076C63.2831 19.2449 65.2912 18.1106 67.1733 18.1106C70.2416 18.1106 71.9744 19.7926 72.6141 20.5688C73.4359 19.2913 76.353 15.3659 81.4488 14.9458C87.5602 14.4619 93.1676 17.7641 94.569 19.7636C95.9704 21.7612 94.2143 24.2542 93.8402 24.7498C93.8015 25.9944 93.4409 36.8822 91.1925 41.2722C90.894 41.8568 90.0315 41.8916 89.1186 41.9245C87.9847 41.9671 87.2423 42.0387 87.2423 42.6252C87.2423 42.7936 87.2326 42.9891 87.2229 43.2059C87.1376 45.0796 86.9961 48.2153 91.8651 48.9295C97.8757 49.8141 99.8412 51.0761 101.977 53.5731C104.113 56.0662 103.71 61.213 103.586 62.3666C104.609 62.8583 108.868 65.3087 110.252 72.5131L120.842 63.1757C120.97 63.0673 121.16 63.077 121.269 63.1989C121.381 63.3267 121.368 63.5164 121.246 63.6306L110.252 73.3222C110.166 73.3919 110.052 73.4151 109.947 73.3822C109.845 73.3454 109.769 73.2545 109.75 73.1461C108.395 65.0339 103.198 62.8544 103.148 62.835C103.018 62.7828 102.942 62.6492 102.962 62.5137C102.966 62.4518 103.702 56.521 101.518 53.9679C99.4419 51.5407 97.6296 50.3909 91.774 49.5296C86.3662 48.736 86.5368 44.9847 86.6162 43.1788C86.6259 42.9698 86.6356 42.7859 86.6356 42.6252C86.6356 41.4135 88.0002 41.3613 89.0934 41.3187C89.7291 41.2954 90.5141 41.2664 90.6517 40.9974C92.9254 36.5551 93.2335 24.7556 93.2335 24.6375C93.2374 24.5717 93.2626 24.5039 93.3053 24.4517C93.3227 24.4285 95.3366 21.9121 94.0709 20.1101C92.7412 18.2132 87.3974 15.0388 81.4972 15.5517C75.756 16.024 72.9377 21.2018 72.9087 21.254C72.8563 21.3489 72.7575 21.4108 72.6489 21.4166C72.5288 21.3973 72.4396 21.3644 72.3834 21.2734C72.3156 21.1689 70.7339 18.7145 67.1733 18.7145C65.4792 18.7145 63.6592 19.7559 62.4167 21.434C60.7828 23.6426 60.366 26.6002 61.2751 29.5462C63.1048 35.4925 66.3863 37.4726 67.6501 38.0359C67.088 35.8796 65.2079 28.3539 65.9599 26.3486C66.303 25.4408 66.9174 24.8156 67.7315 24.533C68.8169 24.1691 70.2009 24.4091 71.5344 25.2279C71.6294 25.284 71.6876 25.3885 71.6817 25.5027C71.672 25.6111 71.1177 36.2435 78.9774 39.3192C79.0957 39.3656 79.1713 39.4798 79.1674 39.6115C79.1577 39.9134 78.8476 47.1275 76.196 49.3496L75.8607 49.6341C71.1836 53.546 69.0476 55.3287 70.9665 73.0609C71.3464 76.5508 72.1741 82.9326 72.1838 82.9984C72.2031 83.1629 72.0868 83.3158 71.9201 83.3352C71.9085 83.339 71.8949 83.339 71.8814 83.339Z" fill="white"/>
<path d="M89.8415 83.8404C89.6903 83.7688 89.6244 83.5907 89.6961 83.4378C90.1303 82.497 90.8514 80.3543 91.6131 78.0838C92.8013 74.5223 94.1561 70.4885 95.0012 69.3445C95.8618 68.1696 96.6488 68.0089 97.1605 68.067C97.804 68.1464 98.3525 68.638 98.6665 69.4103C99.3333 71.075 107.381 82.7003 109.494 82.7003C111.145 82.7003 119.439 72.9138 124.281 66.743C124.386 66.6133 124.57 66.5901 124.705 66.6908C124.839 66.7934 124.859 66.9831 124.758 67.1147C123.455 68.7754 111.99 83.3061 109.494 83.3061C106.798 83.3061 98.5677 70.7904 98.1025 69.6368C97.8796 69.0832 97.4958 68.7193 97.0849 68.667C96.5732 68.6012 96.0227 68.9748 95.4877 69.7026C94.7027 70.7711 93.3673 74.7604 92.1868 78.2735C91.3863 80.6621 90.6944 82.7255 90.2447 83.6952C90.1691 83.85 89.9888 83.9062 89.8415 83.8404Z" fill="white"/>
<path d="M57.7125 83.6565C57.6951 83.6042 56.0998 78.4632 55.5978 74.7255C55.2141 71.8744 53.3281 70.4207 52.6032 69.9639C52.2058 70.9569 50.9459 73.899 49.3837 75.4591C48.3118 76.5276 46.4743 77.867 44.85 79.0439C43.6716 79.9014 42.652 80.6427 42.2314 81.0647C40.8184 82.4738 38.6456 84.2623 36.0599 83.3855C33.5711 82.5532 21.6429 73.1925 21.1351 72.7957C21.0033 72.6912 20.9781 72.4976 21.0828 72.3718C21.1855 72.2383 21.3774 72.2189 21.5092 72.3196C21.6332 72.4125 33.8619 82.0151 36.2499 82.8145C38.508 83.5713 40.5025 81.9299 41.803 80.633C42.2566 80.1801 43.2936 79.4272 44.4953 78.5523C46.1002 77.3889 47.9183 76.0689 48.9514 75.0333C50.723 73.2641 52.1496 69.4568 52.1632 69.4181C52.1942 69.3387 52.2543 69.2768 52.3338 69.2439C52.4152 69.2109 52.5024 69.2109 52.5799 69.2535C52.7059 69.3097 55.6773 70.7769 56.1987 74.6462C56.693 78.3297 58.2727 83.4242 58.2901 83.4765C58.3386 83.6313 58.2494 83.8017 58.0905 83.8539C57.9315 83.9023 57.761 83.8171 57.7125 83.6565Z" fill="white"/>
<path d="M35.6529 71.4911C35.5753 71.4911 35.4959 71.4582 35.4396 71.4021C32.3655 68.3264 24.9109 66.4024 24.8333 66.383C24.6725 66.3443 24.5736 66.1798 24.6163 66.0133C24.657 65.8526 24.8256 65.7539 24.9865 65.7965C25.2791 65.872 31.7957 67.556 35.2361 70.3994C34.9706 68.2935 34.5151 62.7789 36.4902 59.8561C38.915 56.2713 42.1888 56.1474 43.3924 56.2326C43.0261 54.5022 42.0046 48.1108 46.1099 45.4493C48.0521 44.1892 49.8276 43.6879 51.258 43.2872C53.33 42.7007 54.2468 42.3736 54.2468 40.8038C54.2468 39.8863 53.7662 38.8314 50.0078 38.8314C49.9031 38.8314 49.8043 38.7733 49.7481 38.6804C49.5155 38.2875 44.0922 29.0739 45.8754 22.7251C45.0303 22.0012 41.2933 18.4551 43.311 13.7864C43.3479 13.6974 43.4293 13.6296 43.5262 13.6122C43.6231 13.587 43.7219 13.6161 43.7937 13.6858C43.9003 13.7825 46.4026 16.0704 49.8179 14.7852C50.0349 14.7039 50.2637 14.6091 50.506 14.5142C52.9521 13.5212 56.6484 12.0366 62.3935 14.7562C62.5447 14.8316 62.6125 15.0117 62.5388 15.1626C62.4652 15.3097 62.2869 15.3698 62.1337 15.3059C56.6348 12.6986 53.0819 14.1271 50.7327 15.0717C50.4866 15.1723 50.252 15.2672 50.0311 15.3523C46.9666 16.506 44.5709 15.0542 43.7161 14.4019C42.0318 18.9836 46.2243 22.2393 46.4065 22.3806C46.5073 22.4561 46.5499 22.5877 46.5131 22.7116C44.7667 28.3868 49.4845 36.9964 50.1823 38.2255C53.4134 38.2526 54.8535 39.0521 54.8535 40.8038C54.8535 42.8981 53.4134 43.3046 51.4208 43.8679C50.0311 44.2608 48.3021 44.7466 46.4414 45.9545C42.1306 48.7495 44.0573 56.43 44.0786 56.5113C44.1019 56.6101 44.0728 56.7204 44.003 56.7939C43.9293 56.8714 43.8169 56.9043 43.72 56.881C43.5591 56.8462 39.7582 56.0991 36.9922 60.1948C34.7089 63.5783 35.9397 71.0595 35.9494 71.1349C35.9746 71.2685 35.9068 71.3963 35.7924 71.4582C35.7478 71.4756 35.6994 71.4911 35.6529 71.4911Z" fill="white"/>
<path fill-rule="evenodd" clip-rule="evenodd" d="M11.0405 66.8553C8.66416 66.8553 6.73169 64.9255 6.73169 62.5505C6.73169 60.1813 8.66416 58.2515 11.0405 58.2515C13.4168 58.2515 15.3493 60.1813 15.3493 62.5505C15.3493 64.9255 13.4168 66.8553 11.0405 66.8553ZM11.0405 60.0671C9.66625 60.0671 8.5498 61.1801 8.5498 62.5505C8.5498 63.9228 9.66625 65.0397 11.0405 65.0397C12.4147 65.0397 13.5312 63.9228 13.5312 62.5505C13.5312 61.1801 12.4147 60.0671 11.0405 60.0671Z" fill="#E6E7E8"/>
<path fill-rule="evenodd" clip-rule="evenodd" d="M131.185 58.838C128.941 58.838 127.117 57.0165 127.117 54.7751C127.117 52.5375 128.941 50.718 131.185 50.718C133.426 50.718 135.25 52.5375 135.25 54.7751C135.25 57.0165 133.426 58.838 131.185 58.838ZM131.185 52.5336C129.945 52.5336 128.937 53.5402 128.937 54.7751C128.937 56.0139 129.945 57.0223 131.185 57.0223C132.422 57.0223 133.432 56.0139 133.432 54.7751C133.432 53.5402 132.422 52.5336 131.185 52.5336Z" fill="#E6E7E8"/>
<path fill-rule="evenodd" clip-rule="evenodd" d="M11.0405 66.2495C8.99949 66.2495 7.33838 64.5887 7.33838 62.5505C7.33838 60.5123 8.99949 58.8573 11.0405 58.8573C13.0815 58.8573 14.7426 60.5123 14.7426 62.5505C14.7426 64.5887 13.0815 66.2495 11.0405 66.2495ZM11.0405 59.4632C9.33288 59.4632 7.94506 60.8471 7.94506 62.5505C7.94506 64.2577 9.33288 65.6436 11.0405 65.6436C12.7481 65.6436 14.1379 64.2577 14.1379 62.5505C14.1379 60.8471 12.7481 59.4632 11.0405 59.4632Z" fill="white"/>
<path fill-rule="evenodd" clip-rule="evenodd" d="M131.185 58.2321C129.278 58.2321 127.723 56.6817 127.723 54.7751C127.723 52.8685 129.278 51.3219 131.185 51.3219C133.094 51.3219 134.643 52.8685 134.643 54.7751C134.643 56.6817 133.094 58.2321 131.185 58.2321ZM131.185 51.9278C129.613 51.9278 128.33 53.2053 128.33 54.7751C128.33 56.3449 129.613 57.6263 131.185 57.6263C132.759 57.6263 134.038 56.3449 134.038 54.7751C134.038 53.2053 132.759 51.9278 131.185 51.9278Z" fill="white"/>
</svg>
